<?xml version="1.0" encoding="utf-8"?>
<!-- Designed by Vexels.com - 2021 All Rights Reserved - https://vexels.com/terms-and-conditions/  -->
<svg version="1.1" id="Layer_1" xmlns="http://www.w3.org/2000/svg" xmlns:xlink="http://www.w3.org/1999/xlink" x="0px" y="0px"
	 viewBox="0 0 1200 1200" enable-background="new 0 0 1200 1200" xml:space="preserve">
<g id="XMLID_2_">
	<g>
		<path fill="#1FCE81" d="M1143.08,403.457c13.758,42.605,3.457,88.596-0.72,131.886c-4.358,45.018-3.637,90.361-8.896,135.307
			c-2.989,25.318-8.427,50.096-17.035,74.118c-9.112,25.498-16.891,49.088-44.55,58.632c-20.564,7.131-41.705,11.056-61.873,19.628
			c-14.946,6.339-28.884,14.01-41.849,23.337c1.801-12.713,3.241-25.426,3.061-38.14c-0.108-5.906-7.851-6.447-9.796-1.333
			c-11.921,31.405-12.173,64.718-11.849,97.888c-15.955,27.983-38.752,51.141-70.409,60.541
			c-36.267,10.732-76.099,7.923-113.554,8.644c-36.663,0.72-76.495,5.51-112.114-4.826c-16.999-4.934-36.159-11.309-50.456-21.897
			c-12.281-9.04-20.636-22.617-31.441-33.35c-0.648-9.472-1.369-18.872-1.873-28.091c-1.657-30.54-4.106-61.045-7.239-91.513
			c-6.411-62.593-16.459-124.683-25.823-186.88c-9.688-64.43-17.755-128.788-21.501-193.831
			c-1.765-30.612-3.854-61.153-7.563-91.585c-3.529-28.704-6.014-60.541-16.207-87.66c-0.108-0.288-0.288-0.468-0.432-0.72
			c0.36-1.981-0.612-4.322-2.809-4.898c-7.419-1.909-14.73-2.413-22.401-2.737c-9.076-0.432-19.592,1.657-14.91-10.084
			c3.061-7.707,13.073-16.423,18.403-23.049c5.654-7.059,11.056-14.766,17.647-21.033c29.172-27.623,88.2-21.825,121.621-5.546
			c31.405,15.27,60.108,33.71,92.918,46.495c18.223,7.131,36.735,13.469,55.391,19.304c-18.151,1.549-36.303,3.601-54.562,6.159
			c-59.46,8.319-119.749-1.116-179.461-2.629c-5.366-0.108-5.006,7.455,0,8.103c46.387,6.014,93.962,12.821,140.853,11.669
			c45.811-1.116,90.901-11.705,136.856-12.929c46.747-1.225,93.458,1.657,140.025,5.69c20.852,1.801,41.705,3.818,62.557,5.69
			c11.092,1.008,22.257,1.801,33.349,3.025c14.91,1.657,18.296,7.419,17.467,21.357c-1.369,22.941-18.367,43.974,8.824,57.263
			c15.054,7.383,31.765,7.419,45.919,17.503C1125.505,364.922,1136.85,384.082,1143.08,403.457z M1124.497,500.013
			c3.313-28.74,11.381-62.665-1.008-90.217c-1.441-3.169-6.735-1.549-6.555,1.765c1.693,31.729-0.612,60.325-4.79,91.837
			c-4.142,30.901-9.472,63.818-6.195,94.935c0.396,3.818,6.267,5.33,7.239,0.972
			C1120.391,567.036,1120.679,532.858,1124.497,500.013z M1083.656,745.092c31.621-19.556,31.513-76.099,28.776-107.792
			c-0.324-3.565-6.231-5.078-6.807-0.936c-2.701,19.952-3.385,40.372-8.031,59.964c-3.89,16.315-13.001,29.892-18.224,45.486
			C1078.542,744.228,1081.531,746.389,1083.656,745.092z M1092.048,554.143c5.942-46.099,11.777-92.81,9.868-139.413
			c-0.54-12.929-0.252-28.524-12.641-36.231c-11.921-7.383-29.82-6.014-43.902-2.485c0.972-5.366,1.873-10.732,2.629-16.099
			c0.648-4.574-5.294-6.375-6.987-1.945c-14.766,38.644-20.024,82.402-26.327,123.062c-6.375,40.985-11.309,82.149-16.639,123.242
			c-2.809,21.681-5.978,43.29-8.86,64.934c-2.449,18.331-8.391,39.724-6.122,58.164c3.421,28.235,36.339,38.392,60.721,33.494
			c5.186-1.044,4.97-9.076,0-10.264c-8.319-1.981-18.115-2.485-26.651-4.61c27.911-6.122,53.986-25.354,58.56-54.238
			C1082.936,646.196,1086.177,599.917,1092.048,554.143z M978.998,775.201c0.324-4.538-0.324-9.292-3.277-12.929
			c-0.648-0.792-1.945-0.612-2.629,0c-3.493,3.133-4.862,7.887-5.726,12.353c-1.008,5.042-2.305,10.192-1.441,15.306
			c0.756,4.538,6.771,4.25,8.932,1.152C977.953,786.725,978.602,780.459,978.998,775.201z M976.441,546.616
			c0.684-2.161-1.657-4.754-3.89-3.89c-38.788,15.126-92.089,27.803-106.351,72.534c-0.684,1.26-0.648,2.809,0.828,3.998
			c18.764,15.09,43.758,14.91,63.782,1.909C956.525,604.455,967.293,574.383,976.441,546.616z M956.128,378.931
			c24.31,1.585,11.309-89.676,8.571-99.22c-0.576-1.981-3.709-2.161-4.178,0c-0.108,0.576-0.216,1.152-0.324,1.765
			c-13.145,18.476-16.495,41.921-16.819,64.214C943.271,354.694,942.515,378.031,956.128,378.931z M957.281,504.695
			c6.519-2.089,5.474-12.065-1.657-12.137c-35.474-0.216-71.741,11.165-107.072,14.586c-34.07,3.277-68.572,3.097-102.786,4.106
			c-33.53,0.972-67.203,2.773-100.733,1.08c-35.582-1.765-67.095-10.336-100.625-21.321c-4.466-1.441-6.519,4.754-3.025,7.167
			c54.454,37.635,134.947,28.452,197.36,26.759c36.519-0.972,73.398-0.576,109.809-3.71c16.423-1.441,32.773-3.926,49.088-6.411
			C917.161,511.898,938.445,510.673,957.281,504.695z M913.739,741.383c6.122-12.965,8.175-28.163,7.095-42.389
			c-1.621-21.393-9.904-46.603-31.909-54.31c-2.305-0.792-3.818,2.269-2.485,3.89c4.718,13.614-2.557,31.081-5.438,44.55
			c-2.161,10.192-4.214,20.42-5.258,30.793c-2.053,20.384,0.108,39.832,9.148,58.38c1.08,2.197,4.61,1.585,5.15-0.684
			C893.931,765.693,906.932,755.753,913.739,741.383z M896.74,448.728c0.216-13.758-6.014-27.011-8.103-40.516
			c-0.324-2.125-3.709-1.981-4.178,0c-0.036,0.288-0.072,0.576-0.108,0.864c-0.504-0.036-1.008,0.216-1.152,0.756
			c-1.621,6.267-19.52,75.271,3.493,64.214C894.94,470.085,896.632,456.687,896.74,448.728z M892.635,891.78
			c2.665,0.396,4.25-2.233,2.557-4.358c-8.247-10.408-24.166-14.01-36.411-17.431c-3.097-0.864-5.33,3.926-2.269,5.294
			C868.145,880.579,879.885,889.907,892.635,891.78z M843.403,644.215c2.485-8.932-0.72-19.592-3.421-28.235
			c-2.809-8.968-6.483-18.295-12.965-25.21c-0.288-0.36-0.648-0.576-1.008-0.756c-0.216-0.54-0.468-1.044-0.792-1.513
			c-1.981-2.845-5.366-3.061-8.391-4.106c-9.364-3.241-18.8-6.375-28.055-9.976c-15.702-6.086-32.773-17.971-49.268-21.069
			c-2.593-0.468-4.466,0.72-5.438,3.097c-11.093,26.543-20.888,54.958-35.042,80.133c-0.9,0.612-1.549,1.621-1.585,3.025
			c-0.324,10.264,2.701,21.393,4.322,31.549c0.936,6.086,1.729,13.938,5.618,19.016c0.108,0.576,0.36,1.08,0.9,1.477
			c25.967,20.096,67.311,25.823,99.4,27.047c0.072,0.072,0.108,0.108,0.18,0.18c0.792,0.612,1.909,0.216,2.593-0.36
			c0.288-0.216,0.54-0.468,0.756-0.684c1.224-0.036,2.485-0.72,3.097-2.305c6.014-14.766,10.624-29.964,17.575-44.406
			C836.02,662.547,841.998,653.723,843.403,644.215z M836.236,449.736c2.845-0.18,3.782-4.502,0.72-5.222
			c-41.777-9.832-87.155-10.876-129.977-9.508c-40.336,1.297-85.859,4.142-124.034,18.223c-4.25,1.585-2.629,8.031,1.909,6.915
			c20.276-4.862,41.777-5.618,62.449-7.851c20.997-2.269,42.065-4.322,63.17-4.898C752.394,446.207,794.495,452.365,836.236,449.736
			z M827.412,797.386c2.485-7.203-10.336-18.331-14.406-22.365c-12.461-12.245-28.74-24.202-43.362-33.494
			c-11.309-7.203-23.734,1.441-35.078,6.195c-17.791,7.455-35.222,15.738-52.437,24.418c-2.197,0.324-4.106,2.017-4.106,4.214
			c-5.798,9.76-5.726,26.111-7.851,36.879c-2.053,10.156-6.915,23.302-2.593,33.314c0.216,0.54,0.576,0.864,0.936,1.116
			c2.521,6.771,10.048,11.993,16.675,16.171c-24.67-1.333-53.59,11.165-74.838,20.961c-2.557,1.188-0.684,5.006,1.873,4.394
			c14.334-3.457,28.74-7.023,43.218-9.976c12.641-2.629,26.399-3.133,38.103-8.788c0.396-0.18,0.684-0.468,0.936-0.792
			c16.063,10.12,32.269,19.628,47.179,31.549c1.945,1.549,4.178,1.441,5.942,0.468c22.653-7.059,53.446-14.982,67.816-35.258
			c0.072-0.108,0.18-0.18,0.288-0.288c6.303-9.04,6.879-22.689,8.355-33.314c1.585-11.525,3.169-22.941,2.989-34.61v-0.036
			C827.16,797.89,827.304,797.638,827.412,797.386z M690.773,225.689c2.989-0.432,2.629-4.322,0.756-5.69
			c-14.91-10.948-35.078-11.092-51.141-20.78c-14.766-8.932-28.956-16.063-45.883-19.808c-3.565-0.792-5.69,3.926-2.521,5.942
			c16.711,10.48,34.646,21.933,52.185,30.829C657.747,223.096,675.682,227.85,690.773,225.689z M657.639,719.162
			c5.51-16.855,6.843-35.799,3.818-53.23c-5.654-32.629-28.307-59.964-61.081-67.383c-3.349-0.756-5.114,3.169-3.638,5.294
			c-0.108,0.576,0.036,1.152,0.612,1.621c0.072,0.072,0.108,0.108,0.18,0.144c0,0.288,0.108,0.612,0.324,0.864
			c11.777,14.226,8.031,34.574,7.419,51.393c-0.504,12.641,0,25.246,1.657,37.743c2.773,21.393,8.788,42.209,17.827,61.801
			c0.684,1.513,3.313,1.909,4.358,0.54C639.704,744.372,652.129,736.197,657.639,719.162z"/>
		<path fill="#1F7364" d="M1021.675,242.292c-1.837-0.108-3.602-0.216-5.258-0.396c-50.853-5.366-101.813-10.516-152.918-12.533
			c-22.329-0.9-44.478-0.756-66.519,0.144c-22.833-3.097-45.306-13.794-66.771-21.501c-15.342-5.474-30.54-11.273-45.45-17.827
			c27.875-2.701,55.066-4.934,83.662-3.71c34.466,1.513,68.572,6.555,102.606,11.705c30.793,4.682,61.297,10.048,91.117,19.16
			c15.702,4.826,31.153,11.381,46.135,18.151C1012.852,237.538,1017.281,239.879,1021.675,242.292z"/>
		<path fill="#07F3E5" d="M962.683,334.381c0.216,6.447,3.205,28.091-1.837,32.233c-3.638,3.025-7.815-0.36-9.328-2.737
			c-1.477-2.413-1.26-9.868-1.369-12.929c-0.216-4.826,0.036-9.688,0.324-14.514c0.864-15.126,4.07-28.992,8.716-42.893
			C959.154,307.082,962.215,321.272,962.683,334.381z"/>
		<path fill="#1F7364" d="M968.301,551.045c-6.519,19.592-14.01,39.292-28.524,54.418c-17.899,18.656-46.207,26.831-67.419,8.5
			c-0.036-0.036-0.072-0.036-0.108-0.072c14.046-7.023,28.776-12.029,42.93-18.908c12.785-6.195,28.019-12.641,35.582-25.246
			c0.396-0.612-0.396-1.513-1.008-1.044c-14.082,10.624-29.028,18.944-45.054,26.327c-11.345,5.186-23.193,8.607-33.133,15.954
			C891.41,575.247,931.711,564.767,968.301,551.045z"/>
		<path fill="#1F7364" d="M949.754,927.002c0.036,9.328-0.108,18.62-0.648,27.803c-1.693,28.452-11.921,52.833-37.347,67.635
			c-20.6,11.993-45.234,16.999-68.608,20.384c-25.75,3.709-51.861,4.178-77.828,4.394c-27.515,0.216-55.571,1.08-82.834-3.529
			c-45.342-7.671-83.806-27.587-111.609-64.322c0.036-0.144,0.144-0.252,0.144-0.396c2.233-14.91,2.341-30.468,1.693-46.027
			c6.195,9.184,13.433,18.007,21.609,24.238c13.217,10.084,31.261,16.207,46.927,21.321c42.173,13.866,87.84,7.743,131.49,6.915
			c40.084-0.756,86.003,3.782,123.854-11.993C918.997,964.097,938.049,947.819,949.754,927.002z"/>
		<path fill="#1F7364" d="M897.136,656.46c17.899,16.747,21.933,44.622,16.387,68.644c-4.358,18.944-19.376,31.117-26.507,48.044
			c-10.084-25.39-6.735-52.221-1.441-78.764c2.593-13.037,8.031-28.307,4.322-41.525c6.771,13.938,8.571,26.867,8.427,42.929
			c-0.144,13.542-5.222,26.363-4.754,39.688c0.036,1.405,2.089,1.765,2.485,0.324C901.422,715.2,911.326,677.061,897.136,656.46z"/>
		<path fill="#07F3E5" d="M884.207,419.52c1.729,11.957,8.643,23.193,6.519,36.195c-0.252,3.205-1.116,6.267-2.593,9.148
			c-5.906-0.72-8.355-3.601-7.347-8.644c-1.08-4.07,0.072-9.832,0.432-13.902C881.938,434.682,883.163,427.119,884.207,419.52z"/>
		<path fill="#07F3E5" d="M830.185,620.338c2.017,7.311,2.269,15.45,5.15,22.437c-5.114,7.455-7.851,16.819-11.129,25.102
			c-4.502,11.309-9.94,22.509-13.505,34.178c-0.504-1.26-1.044-2.413-1.477-3.493c-2.485-6.195-4.682-13.361-8.427-19.16
			c0-0.576-0.144-1.116-0.36-1.621c5.402-17.287,11.273-34.034,17.611-51.069c1.477-3.962,5.006-12.137,7.167-20.132
			C827.016,611.082,828.889,615.62,830.185,620.338z"/>
		<path fill="#07F3E5" d="M788.336,764.54c4.07,3.061,33.133,23.193,31.477,30.684c-0.36,1.693-15.378,9.544-16.999,10.48
			c-5.69,3.457-11.489,6.771-17.215,10.12c-12.569,7.383-22.689,17.251-36.663,9.436c-21.897-12.281-46.567-30.072-61.549-50.349
			c9.904-3.349,19.52-7.347,29.172-11.489c11.993-5.186,27.443-15.306,40.444-16.855
			C766.655,745.417,780.233,758.526,788.336,764.54z M799.789,794.36c1.693-0.288,2.233-2.197,2.053-3.602
			c-0.468-3.205-3.529-5.186-5.726-7.239c-2.305-2.161-4.898-3.962-7.131-6.195c-1.693-1.657-5.33,0-4.322,2.521
			C787.112,785.717,791.974,795.621,799.789,794.36z M726.067,796.521c0.468-3.854-2.449-5.87-4.97-8.391
			c-1.333-1.369-2.629-2.737-3.998-4.034c-0.792-0.792-2.449-1.873-3.529-3.025c3.745-3.133,8.427-5.294,11.885-8.86
			c1.188-1.224,0-3.493-1.729-2.953c-4.574,1.441-8.86,4.034-12.965,6.447c-2.701,1.549-5.294,3.205-4.322,6.771
			c1.008,3.673,5.222,7.239,7.671,9.976c2.701,3.025,4.862,6.987,9.328,6.735C724.986,799.078,725.923,798.034,726.067,796.521z"/>
		<path fill="#07F3E5" d="M817.796,804.985c0.612-0.36,1.26-0.72,1.945-1.044c-2.089,9.328-3.313,18.836-4.826,28.344
			c-1.621,9.76-5.042,20.456-4.826,30.468c-10.876,4.97-20.42,12.821-31.369,17.863c-10.012,4.61-20.672,7.419-29.532,13.686
			c5.258-7.635,5.402-18.656,7.131-27.479c1.621-8.427,4.898-17.935,4.862-26.831c9.472-2.593,21.213-13.614,28.091-17.827
			C798.744,816.329,808.324,810.711,817.796,804.985z M791.289,852.452c0.756-0.972,0.72-2.881-0.828-3.133
			c-7.275-1.044-15.702,4.106-21.285,8.355c-2.341,1.729-3.421,2.953-3.854,5.798c-0.684,4.25-2.413,9.004-2.377,13.289
			c0,2.197,2.665,3.241,4.25,1.765c2.125-2.053,2.917-4.538,3.673-7.383c0.468-1.657,0.54-3.457,1.008-5.078
			c0.396-0.72,0.216-1.116-0.576-1.188c0.828-0.36,1.621-0.792,2.377-1.26C779.26,860.375,787.184,857.566,791.289,852.452z"/>
		<path fill="#07F3E5" d="M812.718,598.621c5.006,11.849-6.447,31.153-10.768,42.497c-4.142,10.984-8.391,22.113-9.256,33.782
			c-30.468-3.89-57.047-26.615-86.435-34.466c-0.072-0.216-0.216-0.396-0.324-0.576c9.076-9.652,12.965-24.454,18.007-36.375
			c5.726-13.542,11.345-27.119,16.963-40.733c9.328,2.665,19.052,8.535,27.659,12.209
			C778.864,579.353,808.324,588.285,812.718,598.621z M794.279,638.561c1.801-3.745-3.241-6.735-5.582-3.241
			c-4.106,6.122-6.843,13.181-10.012,19.88c-4.178-1.477-8.283-2.197-13.001-2.485c-2.881-0.144-2.953,3.782-0.612,4.718
			c4.538,1.765,9.184,3.926,13.614,5.978c1.729,0.828,4.358,0.684,5.294-1.369C787.508,654.227,790.497,646.268,794.279,638.561z
			 M745.227,599.341c2.089-5.654,5.51-11.813,4.466-17.899c-0.396-2.413-3.421-2.593-4.97-1.333
			c-4.358,3.638-5.762,10.552-7.635,15.738c-2.233,6.05-5.006,11.705-4.646,18.259c0.108,2.161,2.809,3.565,4.43,1.837
			C741.373,611.262,742.994,605.32,745.227,599.341z"/>
		<path fill="#07F3E5" d="M799.537,701.227c0.972,2.341,1.729,5.114,2.593,7.851c-14.478-1.873-28.956-3.277-43.254-6.483
			c-15.09-3.385-28.776-9.292-43.109-14.478c0.504-6.987-2.593-15.234-3.602-21.681c-0.792-4.898-1.224-10.12-2.269-15.198
			c11.453,7.275,25.03,12.065,37.275,17.107c14.91,6.122,29.46,13.181,45.523,14.586
			C794.026,689.234,797.196,695.428,799.537,701.227z"/>
		<path fill="#07F3E5" d="M753.402,839.775c-4.574,7.527-5.978,17.827-7.671,25.859c-1.549,7.347-4.178,15.774-3.529,23.554
			c-12.569-9.328-25.75-17.611-39.256-25.642c-9.472-5.618-18.764-14.298-28.596-19.34c5.618-9.976,5.366-26.003,6.951-36.771
			c0.9-6.05,2.917-13.686,3.061-20.78c8.247,10.444,18.331,18.908,29.604,26.435c7.311,4.898,14.982,9.292,22.365,14.118
			C741.193,830.375,747.388,837.398,753.402,839.775z M701.253,842.584c2.629,0.648,4.934-2.233,3.565-4.646
			c-1.513-2.557-4.25-4.07-6.555-5.834c-2.233-1.729-4.574-3.818-7.275-4.682c-2.413-0.756-4.034,1.981-3.061,3.962
			c1.26,2.557,3.89,4.538,6.014,6.303C696.175,839.559,698.372,841.864,701.253,842.584z"/>
		<path fill="#1F7364" d="M655.478,667.589c2.593,15.45,1.765,32.305-2.665,47.323c-4.682,15.918-14.91,24.13-24.814,35.69
			c-11.021-27.731-17.647-56.291-17.287-86.435c0.18-13.217,3.89-32.341-0.972-46.423c19.628,23.554,24.382,54.742,18.295,86.039
			c-0.396,2.053,2.593,3.674,3.637,1.513c8.68-17.467,5.114-40.949,0.36-59.28c-3.89-15.018-11.525-28.596-23.482-38.031
			C633.905,617.384,650.868,640.362,655.478,667.589z"/>
		<path fill="#1F7364" d="M458.874,562.426c0.072,18.944-21.393,26.579-36.771,29.748c-32.773,6.807-68.824,7.635-102.138,8.139
			c-39.76,0.612-79.196-2.593-118.488-8.643c-14.838-2.305-30.252-3.854-44.298-9.4c-8.752-3.457-20.312-9.94-24.778-18.62
			c-5.978-11.669,1.261-17.503,10.084-22.293c0.9,3.277,1.837,6.519,2.737,9.832c0.324,1.188,0.9,2.089,1.585,2.809
			c0.216,1.837,1.152,3.71,3.169,5.15c16.711,12.029,44.442,12.857,64.07,15.594c26.687,3.673,53.554,5.762,80.493,6.122
			c27.407,0.36,54.814-1.116,82.041-4.394c22.905-2.737,52.689-4.07,72.245-17.035c1.693-1.152,1.837-4.61-0.648-4.934
			c-3.926-0.54-7.923-0.72-11.993-0.684c-0.54-7.419-9.58-13.037-15.954-15.27c-6.014-2.125-12.569-2.809-18.836-3.602
			c-0.252-0.036-0.504-0.072-0.756-0.108c1.945-1.657,4.142-2.953,6.915-3.89c2.593-0.864,5.222-1.26,7.671-2.197
			C429.846,535.775,458.802,543.662,458.874,562.426z"/>
		<path fill="#1FCE81" d="M439.642,601.97c-3.565,30-1.405,61.801-2.125,91.693c-0.864,37.527-1.225,75.091-5.546,112.402
			c-4.25,36.627-9.58,73.074-14.154,109.629c-3.818,30.432-0.072,76.423-23.986,99.148c-22.293,21.177-54.022,21.501-82.69,20.816
			c-35.006-0.828-76.495,3.818-110.133-7.095c-19.412-6.303-19.808-23.59-21.141-40.949c-1.369-17.359-2.089-34.61-1.909-52.041
			c0.324-35.943,1.333-71.417-1.837-107.288c-3.71-41.597-8.067-83.122-12.821-124.611c-4.106-36.159-7.095-73.326-14.442-109.124
			c1.477,0.648,2.989,1.297,4.43,1.837c23.337,8.896,50.421,10.732,75.055,13.722c31.549,3.818,63.386,5.402,95.151,4.718
			c27.407-0.576,54.886-2.917,82.113-5.942C416.881,607.624,428.766,605.932,439.642,601.97z M427.542,633.699
			c3.385-1.513,0.72-5.906-2.305-5.474c-27.407,3.818-53.806,8.896-81.645,9.004c-25.895,0.108-51.465-2.341-77.323-0.288
			c-1.765,0.108-2.341,2.773-0.432,3.205c27.839,6.591,55.895,7.815,84.454,6.987C376.113,646.34,403.736,644.359,427.542,633.699z
			 M405.753,839.163c5.618-36.447,10.732-73.29,7.707-110.205c-0.216-2.485-4.322-3.529-4.754-0.648
			c-5.654,39.328-7.923,78.944-14.298,118.236c-3.061,18.98-6.231,37.959-9.076,56.975c-2.413,16.063-6.303,32.809-3.71,48.98
			c0.36,2.413,3.601,1.765,4.286,0c6.915-17.467,7.419-37.959,10.444-56.435C399.45,877.086,402.799,858.178,405.753,839.163z
			 M383.243,704.684c1.513-1.873,0.216-5.618-2.665-4.574c-6.014,2.197-12.497-5.402-18.692-5.834
			c-2.665-0.144-5.114,0.576-7.671,1.116c-3.71,0.792-7.635,0.792-11.129,2.269c-1.981,0.828-3.205,3.349-1.369,5.078
			c7.311,6.843,15.882-0.756,23.77,2.953C371.791,708.682,378.129,711.131,383.243,704.684z M379.534,800.735
			c0.612-1.693-1.008-3.71-2.737-3.601c-14.91,0.936-28.92-1.261-43.722-2.053c-8.427-0.468-15.486,1.044-20.997,7.491
			c-1.008,0.216-1.837,1.369-1.224,2.485c6.987,12.965,19.772,21.249,34.826,18.476
			C358.934,821.047,374.564,813.952,379.534,800.735z M378.49,850.435c0.468-2.845-2.053-4.754-4.682-3.601
			c-12.821,5.726-25.714,10.624-36.843,19.556c-7.455,5.978-10.3,14.694-13.109,23.445c-0.468,0.252-0.936,0.54-1.333,0.9
			c-0.54,0.432-0.468,1.08-0.18,1.585c-0.072,0.432-0.036,0.936,0.18,1.405c6.05,12.281,21.393,9.076,29.712,1.008
			c5.906-5.69,9.004-13.397,13.325-20.24C370.746,866.282,376.905,860.339,378.49,850.435z M368.333,922.609
			c2.881-2.233-0.252-7.383-3.565-6.122c-7.059,2.629-9.364,0.936-14.946-2.845c-2.881-1.981-4.862-3.097-8.499-3.025
			c-5.51,0.036-10.3,2.161-16.063,1.333c-4.034-0.576-5.798-0.9-9.508,0.972c-1.621,0.792-2.017,3.025-1.188,4.502
			c6.303,11.633,21.501,2.449,30.54,7.275c3.746,1.981,5.366,4.394,10.084,4.286C360.338,928.839,364.48,925.634,368.333,922.609z
			 M357.817,760.651c3.133-1.08,3.637-5.942,0-6.843c-15.054-3.674-31.549-1.333-47.035-2.161
			c-15.414-0.792-31.225-4.07-46.567-1.765c-2.377,0.36-2.773,4.178-0.684,5.186c13.433,6.483,29.28,7.059,43.974,7.887
			C323.675,763.856,342.403,766.089,357.817,760.651z M300.338,997.951c26.399-7.635,33.278-36.123,21.285-59.676
			c-7.059-13.866-19.124-24.85-27.695-37.707c-9.796-14.802-18.115-29.676-25.246-45.775c14.658,3.205,28.92,6.951,43.758,11.993
			c2.953,1.008,4.358-2.773,2.773-4.754c-14.586-18.223-22.905-38.428-45.739-48.08c-20.564-8.68-42.677-3.493-62.269,5.222
			c-0.792,0.36-1.225,0.972-1.369,1.621c-1.333,0.612-2.233,2.089-1.152,3.673c5.654,8.319,13.073,14.55,21.573,18.98
			c10.876,33.602,17.035,68.86,26.147,102.93C258.489,969.139,268.933,1006.991,300.338,997.951z M305.128,709.87
			c3.025-0.612,2.269-5.294-0.72-5.294c-16.351,0-32.341-6.951-48.728-4.718c-1.188,0.18-1.261,1.945-0.324,2.485
			c8.211,4.502,17.215,5.654,26.399,7.023C289.641,710.518,297.241,711.455,305.128,709.87z M263.495,791.479
			c1.729-0.324,1.729-3.133,0-3.493c-11.921-2.341-24.166-2.629-36.195-4.358c-11.885-1.693-24.058-6.699-35.979-6.231
			c-2.269,0.072-2.881,2.845-1.116,4.07c9.976,6.915,24.274,8.067,36.051,9.688C238.645,792.92,251.178,794,263.495,791.479z
			 M238.501,636.22c1.873-0.756,2.197-2.953,0.54-4.178c-9.328-6.699-23.049-6.699-34.142-8.752
			c-11.561-2.125-23.446-5.798-35.258-5.474c-2.269,0.072-2.953,2.953-1.116,4.178c10.408,6.951,23.878,9.616,35.979,12.173
			C215.019,636.436,228.164,640.29,238.501,636.22z M233.567,1020.1c2.305-0.432,2.413-3.709,0.612-4.79
			c-12.605-7.779-19.628-15.018-23.049-29.748c-3.097-13.469-4.07-28.163-4.79-41.921c-0.216-4.214-6.159-4.142-6.519,0
			C197.948,965.214,195.427,1026.979,233.567,1020.1z M232.054,765.405c23.518-31.297-15.414-76.567-31.117-101.849
			c-1.945-3.133-6.267-1.585-6.591,1.801c-2.413,25.282-11.02,45.09,0.756,69.364c6.447,13.325,16.459,32.557,33.638,31.369
			c0.36,0,0.72-0.108,1.044-0.252C230.469,766.233,231.514,766.161,232.054,765.405z M230.037,919.151
			c4.286-1.152,2.917-6.735-0.972-7.203c-3.493-0.432-7.275-0.648-10.588-1.981c-2.773-1.08-4.97-3.169-7.815-4.142
			c-2.557-0.864-4.574-0.54-7.239-0.36c-2.917,0.216-5.654-0.792-8.463,0.072c-1.225,0.324-2.161,1.513-2.125,2.809
			c0.18,8.968,10.084,5.69,15.342,7.743c3.457,1.369,5.726,3.673,9.58,4.322C221.97,921.132,226.004,920.268,230.037,919.151z"/>
		<path fill="#1FCE81" d="M422.644,551.478c1.224,0.864,2.269,1.909,3.241,2.989c-15.414,1.585-31.189,5.69-45.883,7.383
			c-20.06,2.377-40.264,3.71-60.469,4.214c-16.891-21.033-32.557-39.832-39.364-66.915c-7.671-30.396-4.574-76.171,32.809-84.562
			c28.92-6.483,60.793,13.722,77.612,35.871c8.968,11.813,15.738,25.714,18.692,40.3c1.981,9.832-0.072,20.132,1.945,29.568
			c-3.601,0.252-7.311,1.477-10.408,2.773c-5.51,2.341-10.588,6.339-13.433,11.669c-0.396,0.72-0.612,1.441-0.648,2.125
			c-0.144,0.144-0.288,0.216-0.432,0.396c-0.684,0.864-0.828,1.729-0.36,2.737c3.349,7.275,14.874,5.942,21.681,6.843
			C412.884,547.516,418.214,548.416,422.644,551.478z M397.793,509.305c2.377-2.017,1.405-5.87-0.972-7.347
			c-3.061-1.945-6.195-1.477-9.652-1.152c-3.349,0.36-6.555,0.648-9.508,2.377c-3.601,2.089-2.305,6.735,1.044,8.103
			c3.061,1.261,6.447,0.972,9.688,0.864C392.031,512.006,394.876,511.717,397.793,509.305z M373.952,462.702
			c1.26-4.214-3.313-6.663-6.735-5.15c-8.752,3.782-11.597,16.531-9.58,24.922c1.008,4.07,6.771,3.746,7.923,0
			c1.008-3.385,2.161-6.915,3.637-10.156C370.71,469.004,372.871,466.267,373.952,462.702z M360.662,524.935
			c0.216-3.71-4.286-5.942-7.311-4.178c-3.565,2.089-5.798,6.014-7.923,9.472c-2.305,3.71-4.142,7.131-2.233,11.417
			c0.576,1.297,2.305,2.161,3.637,2.089c4.646-0.18,6.879-3.746,9.112-7.383C358.069,532.822,360.41,529.149,360.662,524.935z
			 M330.626,486.327c2.953,1.945,8.103-0.576,7.635-4.394c-0.612-4.826-3.457-8.355-5.762-12.533
			c-2.377-4.286-4.79-8.499-6.915-12.893c-2.161-4.358-8.607-1.224-7.563,3.169C319.966,468.176,322.919,481.213,330.626,486.327z
			 M329.798,511.789c0.72-1.116,0.324-2.485-0.432-3.421c-2.881-3.457-7.491-3.637-11.669-3.637c-5.186-0.036-10.3,0.396-15.45,0.54
			c-4.862,0.144-6.195,7.527-1.188,8.716C309.089,515.895,324.179,520.253,329.798,511.789z"/>
		<path fill="#1F7364" d="M344.06,801.851c9.328,1.152,18.656,1.405,28.019,1.116c-5.726,8.463-18.223,13.037-27.623,14.55
			c-11.669,1.909-20.564-3.674-28.235-11.489c9.04,4.466,22.221,6.807,31.261,2.845c0.576-0.252,0.36-1.08-0.144-1.225
			c-5.15-1.513-10.156-1.26-15.414-1.765c-5.582-0.504-10.984-1.873-16.531-2.557C323.819,797.494,334.516,800.663,344.06,801.851z"
			/>
		<path fill="#1F7364" d="M370.17,854.757c-3.601,7.887-9.76,14.694-14.118,22.257c-2.593,4.43-5.078,9.112-8.86,12.677
			c-5.186,4.862-10.48,5.402-15.954,3.746c1.945-0.576,3.818-1.369,5.366-2.125c5.078-2.377,8.968-5.978,12.101-10.588
			c1.333-1.945-1.765-4.358-3.313-2.557c-3.241,3.746-7.239,6.807-11.813,8.716c-1.549,0.612-3.205,0.936-4.862,1.333
			c4.358-6.771,8.68-13.542,15.486-18.043C352.271,864.805,360.986,858.503,370.17,854.757z"/>
		<path fill="#07F3E5" d="M308.981,940.544c9.256,15.882,7.815,53.122-20.204,47.071c-23.806-5.114-29.748-63.962-34.574-83.482
			c-4.862-19.844-10.3-38.752-19.016-56.795c3.421,1.188,6.987,2.161,10.696,2.845c3.205,0.612,6.375,1.224,9.544,1.837
			c0,0.144,0,0.288,0.036,0.432c4.25,22.005,19.088,43.073,32.305,60.757C294.575,922.356,303.183,930.64,308.981,940.544z
			 M294.864,950.7c3.421,0,6.735-3.025,6.591-6.591c-0.18-3.565-2.917-6.591-6.591-6.591c-3.457,0-6.771,3.025-6.591,6.591
			C288.417,947.675,291.154,950.7,294.864,950.7z M283.699,969.031c2.845,0,5.546-2.485,5.402-5.402
			c-0.144-2.917-2.377-5.402-5.402-5.402c-2.809,0-5.546,2.485-5.402,5.402C278.441,966.546,280.674,969.031,283.699,969.031z
			 M281.61,929.487c2.629,0.324,4.898-2.485,4.898-4.898c0-2.377-2.269-5.222-4.898-4.898c-0.216,0.036-0.468,0.072-0.684,0.108
			c-2.593,0.288-4.826,1.981-4.826,4.79c0,2.881,2.233,4.502,4.826,4.826C281.142,929.451,281.394,929.451,281.61,929.487z"/>
		<path fill="#1F7364" d="M303.507,566.316c-8.247,0.036-16.495-0.18-24.778-0.468c-20.096-26.435-27.983-56.903-26.219-90.073
			c4.502-3.025,7.635-8.644,10.408-13.974C260.362,498.896,278.693,543.05,303.507,566.316z"/>
		<path fill="#1F7364" d="M276.064,824.901c12.821,8.139,20.816,21.249,29.46,33.494c-14.37-5.006-28.704-10.156-43.578-13.469
			c-18.512-4.07-33.097-8.716-47.827-19.7c12.317,2.377,24.814,3.89,37.167,6.05c11.741,2.053,22.221,6.375,33.53,9.724
			c0.648,0.18,1.152-0.684,0.648-1.116c-8.283-7.923-19.88-9.904-30.865-11.777c-12.929-2.197-26.039-4.214-39.112-5.546
			C236.304,816.473,256.004,812.152,276.064,824.901z"/>
		<path fill="#1FCE81" d="M245.956,524.359c3.565,14.766,10.372,28.776,19.88,40.913c-12.101-0.684-24.202-1.693-36.267-3.061
			c-9.508-1.116-19.592-2.125-29.676-3.602c-2.737-10.84-5.69-21.645-8.788-32.377c8.607-0.468,17.251-2.017,25.859-2.341
			C226.652,523.53,236.304,523.89,245.956,524.359z"/>
		<path fill="#1F7364" d="M200.541,675.548c17.575,25.462,37.959,52.185,30.144,83.626c-2.125-7.311-5.51-13.866-8.716-20.924
			c-5.33-11.777-7.203-23.95-11.273-36.051c-0.468-1.297-2.305-1.044-2.377,0.324c-1.585,20.24,10.156,38.68,18.584,56.615
			c-14.946-4.97-25.822-26.759-29.136-40.913C194.455,704.072,198.596,689.81,200.541,675.548z"/>
		<path fill="#07F3E5" d="M135.823,413.037c20.744,46.135,37.131,94.07,49.556,143.086c-9.832-2.053-19.412-4.79-28.127-8.824
			c-10.084-45.126-25.895-88.704-47.539-129.545C87.779,376.374,70.42,333.337,50,291.38c5.726-2.413,11.741-3.782,17.539-5.906
			c8.932,19.952,22.077,38.284,32.773,57.263C113.206,365.642,125.055,389.088,135.823,413.037z"/>
	</g>
</g>
</svg>
